<mxfile host="app.diagrams.net" modified="2020-11-18T00:39:32.435Z" agent="5.0 (Macintosh; Intel Mac OS X 10_15_4) AppleWebKit/605.1.15 (KHTML, like Gecko) Version/13.1 Safari/605.1.15" etag="Ld0YjvlSIJlb2uSXpA8H" version="13.9.9" type="github">
  <diagram id="EyQcR0IrXR3nsEJhd5hB" name="Page-1">
    <mxGraphModel dx="643" dy="547" grid="1" gridSize="10" guides="1" tooltips="1" connect="1" arrows="1" fold="1" page="1" pageScale="1" pageWidth="2339" pageHeight="3300" math="0" shadow="0">
      <root>
        <mxCell id="0" />
        <mxCell id="1" parent="0" />
        <mxCell id="aeZumaDZK0r62vW7X_HJ-177" value="alcpt_user" style="rounded=0;whiteSpace=wrap;html=1;" vertex="1" parent="1">
          <mxGeometry x="812" y="855" width="80" height="30" as="geometry" />
        </mxCell>
        <mxCell id="aeZumaDZK0r62vW7X_HJ-178" value="email" style="ellipse;whiteSpace=wrap;html=1;rounded=0;" vertex="1" parent="1">
          <mxGeometry x="902" y="810" width="48" height="25" as="geometry" />
        </mxCell>
        <mxCell id="aeZumaDZK0r62vW7X_HJ-179" value="update_time" style="ellipse;whiteSpace=wrap;html=1;rounded=0;" vertex="1" parent="1">
          <mxGeometry x="922" y="895" width="80" height="30" as="geometry" />
        </mxCell>
        <mxCell id="aeZumaDZK0r62vW7X_HJ-180" value="created_time" style="ellipse;whiteSpace=wrap;html=1;rounded=0;" vertex="1" parent="1">
          <mxGeometry x="872" y="925" width="78" height="30" as="geometry" />
        </mxCell>
        <mxCell id="aeZumaDZK0r62vW7X_HJ-181" value="reg_id&lt;span style=&quot;color: rgba(0 , 0 , 0 , 0) ; font-family: monospace ; font-size: 0px&quot;&gt;%3CmxGraphModel%3E%3Croot%3E%3CmxCell%20id%3D%220%22%2F%3E%3CmxCell%20id%3D%221%22%20parent%3D%220%22%2F%3E%3CmxCell%20id%3D%222%22%20value%3D%22email%22%20style%3D%22ellipse%3BwhiteSpace%3Dwrap%3Bhtml%3D1%3Brounded%3D0%3B%22%20vertex%3D%221%22%20parent%3D%221%22%3E%3CmxGeometry%20x%3D%22160%22%20y%3D%22670%22%20width%3D%2260%22%20height%3D%2230%22%20as%3D%22geometry%22%2F%3E%3C%2FmxCell%3E%3C%2Froot%3E%3C%2FmxGraphModel%3E&lt;/span&gt;" style="ellipse;whiteSpace=wrap;html=1;rounded=0;" vertex="1" parent="1">
          <mxGeometry x="802" y="915" width="60" height="30" as="geometry" />
        </mxCell>
        <mxCell id="aeZumaDZK0r62vW7X_HJ-182" value="name" style="ellipse;whiteSpace=wrap;html=1;rounded=0;" vertex="1" parent="1">
          <mxGeometry x="942" y="845" width="48" height="25" as="geometry" />
        </mxCell>
        <mxCell id="aeZumaDZK0r62vW7X_HJ-183" value="last_login" style="ellipse;whiteSpace=wrap;html=1;rounded=0;" vertex="1" parent="1">
          <mxGeometry x="720" y="910" width="60" height="30" as="geometry" />
        </mxCell>
        <mxCell id="aeZumaDZK0r62vW7X_HJ-184" value="password" style="ellipse;whiteSpace=wrap;html=1;rounded=0;" vertex="1" parent="1">
          <mxGeometry x="760" y="970" width="60" height="30" as="geometry" />
        </mxCell>
        <mxCell id="aeZumaDZK0r62vW7X_HJ-185" value="stu_id" style="ellipse;whiteSpace=wrap;html=1;rounded=0;" vertex="1" parent="1">
          <mxGeometry x="850" y="970" width="60" height="30" as="geometry" />
        </mxCell>
        <mxCell id="aeZumaDZK0r62vW7X_HJ-187" value="email_is_verified" style="ellipse;whiteSpace=wrap;html=1;rounded=0;" vertex="1" parent="1">
          <mxGeometry x="922" y="960" width="100" height="30" as="geometry" />
        </mxCell>
        <mxCell id="aeZumaDZK0r62vW7X_HJ-188" value="gender&lt;span style=&quot;color: rgba(0 , 0 , 0 , 0) ; font-family: monospace ; font-size: 0px&quot;&gt;%3CmxGraphModel%3E%3Croot%3E%3CmxCell%20id%3D%220%22%2F%3E%3CmxCell%20id%3D%221%22%20parent%3D%220%22%2F%3E%3CmxCell%20id%3D%222%22%20value%3D%22password%22%20style%3D%22ellipse%3BwhiteSpace%3Dwrap%3Bhtml%3D1%3Brounded%3D0%3B%22%20vertex%3D%221%22%20parent%3D%221%22%3E%3CmxGeometry%20x%3D%22760%22%20y%3D%22970%22%20width%3D%2260%22%20height%3D%2230%22%20as%3D%22geometry%22%2F%3E%3C%2FmxCell%3E%3C%2Froot%3E%3C%2FmxGraphModel%3E&lt;/span&gt;" style="ellipse;whiteSpace=wrap;html=1;rounded=0;" vertex="1" parent="1">
          <mxGeometry x="812" y="1010" width="60" height="30" as="geometry" />
        </mxCell>
        <mxCell id="aeZumaDZK0r62vW7X_HJ-189" value="photo" style="ellipse;whiteSpace=wrap;html=1;rounded=0;" vertex="1" parent="1">
          <mxGeometry x="896" y="1010" width="44" height="30" as="geometry" />
        </mxCell>
        <mxCell id="aeZumaDZK0r62vW7X_HJ-190" value="identity" style="ellipse;whiteSpace=wrap;html=1;rounded=0;" vertex="1" parent="1">
          <mxGeometry x="832" y="805" width="60" height="30" as="geometry" />
        </mxCell>
        <mxCell id="aeZumaDZK0r62vW7X_HJ-191" value="privilege" style="ellipse;whiteSpace=wrap;html=1;rounded=0;" vertex="1" parent="1">
          <mxGeometry x="752" y="815" width="60" height="30" as="geometry" />
        </mxCell>
        <mxCell id="aeZumaDZK0r62vW7X_HJ-194" value="introduction" style="ellipse;whiteSpace=wrap;html=1;rounded=0;" vertex="1" parent="1">
          <mxGeometry x="710" y="855" width="80" height="30" as="geometry" />
        </mxCell>
      </root>
    </mxGraphModel>
  </diagram>
</mxfile>
